<svg xmlns="http://www.w3.org/2000/svg" viewBox="0 0 171.32 54.06"><defs><style>.cls-1{fill:#cc1517;}</style></defs><g id="Слой_2" data-name="Слой 2"><g id="Слой_1-2" data-name="Слой 1"><path class="cls-1" d="M39.6,0H14.46A14.45,14.45,0,0,0,0,14.46V24.84A20.12,20.12,0,0,1,17.65,14.4H18V18c-.78.13-1.51,1.35-1.58,3.89a2,2,0,0,0-1.61,1.95c0,.08,0,.15,0,.21a13.14,13.14,0,1,0,7-.36,2,2,0,0,0-1.91-1.84c-.07-2.5-.8-3.71-1.57-3.85V14.4h1.82A20.12,20.12,0,0,1,40.25,34.52v1.85A20.13,20.13,0,0,1,29.72,54.06H39.6A14.45,14.45,0,0,0,54.06,39.6V14.46A14.45,14.45,0,0,0,39.6,0ZM16.72,41.82l-3.13-1.65-3.13,1.65.6-3.49L8.52,35.86l3.5-.51,1.57-3.17,1.57,3.17,3.5.51-2.54,2.47Zm6.87-9,1.23-2.5,1.23,2.5,2.75.4-2,1.94.47,2.74L24.82,36.6l-2.47,1.29.47-2.74-2-1.94Zm-2.9,9.39,1.62.28,1.15-1.17.23,1.63,1.48.73-1.48.72L23.45,46,22.3,44.84l-1.62.28.77-1.46Zm-.08-13.94-1.08,1.06.25,1.49-1.33-.71-1.34.71.25-1.49-1.08-1.06,1.5-.21.67-1.36.66,1.36Zm-1.53-9a7.18,7.18,0,0,1,.47,2.61h-2.8c.07-2.32.74-3.54,1.4-3.54C18.49,18.28,18.83,18.62,19.08,19.21Z"/><path class="cls-1" d="M104.5,18.17h-1.17a7.64,7.64,0,0,0-7.64,7.64v2.71a7.64,7.64,0,0,0,7.64,7.64h1.17a7.64,7.64,0,0,0,7.64-7.64V25.81A7.64,7.64,0,0,0,104.5,18.17Zm2.67,10.66a3.43,3.43,0,0,1-6.86,0V25.5a3.43,3.43,0,0,1,6.86,0Z"/><rect class="cls-1" x="136.2" y="18.65" width="4.71" height="17.51"/><rect class="cls-1" x="145.84" y="11.93" width="4.97" height="24.23"/><circle class="cls-1" cx="138.56" cy="14.05" r="2.65"/><path class="cls-1" d="M78,19.62c-2.08-1.19-3.46-1.45-7.88-1.45H68a2.56,2.56,0,0,0-2.56,2.56V36.16h4.71V22.07c2.88-.27,5.9.05,5.9,2.44V36.16h4.71V24.51c0-3.19,5.81-3.19,6.23,0V36.16H91.7V24.51C91.7,18.17,83,16.6,78,19.62Z"/><path class="cls-1" d="M168.74,28.52c1.74,0,2.61-.72,2.58-2.71,0-.09,0-.18,0-.27-.14-4.1-2.54-7.37-6.67-7.37h-1.17a7.64,7.64,0,0,0-7.64,7.64v2.71a7.64,7.64,0,0,0,7.64,7.64h1.17a9.58,9.58,0,0,0,5.84-2.08l-1.55-2.81a11.61,11.61,0,0,1-5.05,1,3.44,3.44,0,0,1-3.43-3.43v-.31Zm-8.29-3a3.44,3.44,0,0,1,3.43-3.43A3.17,3.17,0,0,1,167,25.5v0h-6.54Z"/><path class="cls-1" d="M120.59,18.71V11.93h-5V34.47c9.45,4.11,16.69,0,16.24-7.53C131.87,19,127.26,17.44,120.59,18.71Zm0,13.23V22.55c4.65-1.06,6.37.81,6.37,4.39C126.87,32.26,124.63,32.24,120.59,31.94Z"/></g></g></svg>